HIERARCHY
ROOT hip
{
  OFFSET 0 0 0
  CHANNELS 6 Xposition Yposition Zposition Zrotation Yrotation Xrotation
  JOINT abdomen
  {
    OFFSET 0 20.6881 -0.73152
    CHANNELS 3 Zrotation Xrotation Yrotation
    JOINT chest
    {
      OFFSET 0 11.7043 -0.48768
      CHANNELS 3 Zrotation Xrotation Yrotation
      JOINT neck
      {
        OFFSET 0 22.1894 -2.19456
        CHANNELS 3 Zrotation Xrotation Yrotation
        JOINT head
        {
          OFFSET -0.24384 7.07133 1.2192
          CHANNELS 3 Zrotation Xrotation Yrotation
          JOINT leftEye
          {
            OFFSET 4.14528 8.04674 8.04672
            CHANNELS 3 Zrotation Xrotation Yrotation
            End Site
            {
              OFFSET 1 0 0
            }
          }
          JOINT rightEye
          {
            OFFSET -3.6576 8.04674 8.04672
            CHANNELS 3 Zrotation Xrotation Yrotation
            End Site
            {
              OFFSET 1 0 0
            }
          }
        }
      }
      JOINT rCollar
      {
        OFFSET -2.68224 19.2634 -4.8768
        CHANNELS 3 Zrotation Xrotation Yrotation
        JOINT rShldr
        {
          OFFSET -8.77824 -1.95073 1.46304
          CHANNELS 3 Zrotation Xrotation Yrotation
          JOINT rForeArm
          {
            OFFSET -28.1742 -1.7115 0.48768
            CHANNELS 3 Zrotation Xrotation Yrotation
            JOINT rHand
            {
              OFFSET -22.5879 0.773209 7.07136
              CHANNELS 3 Zrotation Xrotation Yrotation
              JOINT rThumb1
              {
                OFFSET -1.2192 -0.487915 3.41376
                CHANNELS 3 Zrotation Xrotation Yrotation
                JOINT rThumb2
                {
                  OFFSET -3.37035 -0.52449 3.41376
                  CHANNELS 3 Zrotation Xrotation Yrotation
                  End Site
                  {
                    OFFSET -1.78271 -1.18214 1.43049
                  }
                }
              }
              JOINT rIndex1
              {
                OFFSET -7.75947 0.938293 5.60832
                CHANNELS 3 Zrotation Xrotation Yrotation
                JOINT rIndex2
                {
                  OFFSET -2.54057 -0.884171 1.56538
                  CHANNELS 3 Zrotation Xrotation Yrotation
                  End Site
                  {
                    OFFSET -1.62519 -0.234802 1.16502
                  }
                }
              }
              JOINT rMid1
              {
                OFFSET -8.24714 1.18213 3.41376
                CHANNELS 3 Zrotation Xrotation Yrotation
                JOINT rMid2
                {
                  OFFSET -3.10165 -0.590103 1.0647
                  CHANNELS 3 Zrotation Xrotation Yrotation
                  End Site
                  {
                    OFFSET -2.48547 -0.328903 0.83742
                  }
                }
              }
              JOINT rRing1
              {
                OFFSET -8.82822 0.546677 1.51678
                CHANNELS 3 Zrotation Xrotation Yrotation
                JOINT rRing2
                {
                  OFFSET -2.60934 -0.819778 -0.0198488
                  CHANNELS 3 Zrotation Xrotation Yrotation
                  End Site
                  {
                    OFFSET -2.33842 -0.294052 0.168128
                  }
                }
              }
              JOINT rPinky1
              {
                OFFSET -8.27202 -0.0477905 -0.4584
                CHANNELS 3 Zrotation Xrotation Yrotation
                JOINT rPinky2
                {
                  OFFSET -1.82734 -0.647385 -0.700984
                  CHANNELS 3 Zrotation Xrotation Yrotation
                  End Site
                  {
                    OFFSET -1.69225 -0.51767 -0.607171
                  }
                }
              }
            }
          }
        }
      }
      JOINT lCollar
      {
        OFFSET 2.68224 19.2634 -4.8768
        CHANNELS 3 Zrotation Xrotation Yrotation
        JOINT lShldr
        {
          OFFSET 8.77824 -1.95073 1.46304
          CHANNELS 3 Zrotation Xrotation Yrotation
          JOINT lForeArm
          {
            OFFSET 28.1742 -1.7115 0.48768
            CHANNELS 3 Zrotation Xrotation Yrotation
            JOINT lHand
            {
              OFFSET 22.5879 0.773209 7.07136
              CHANNELS 3 Zrotation Xrotation Yrotation
              JOINT lThumb1
              {
                OFFSET 1.2192 -0.487915 3.41376
                CHANNELS 3 Zrotation Xrotation Yrotation
                JOINT lThumb2
                {
                  OFFSET 3.37035 -0.52449 3.41376
                  CHANNELS 3 Zrotation Xrotation Yrotation
                  End Site
                  {
                    OFFSET 1.78271 -1.18214 1.43049
                  }
                }
              }
              JOINT lIndex1
              {
                OFFSET 7.75947 0.938293 5.60832
                CHANNELS 3 Zrotation Xrotation Yrotation
                JOINT lIndex2
                {
                  OFFSET 2.54057 -0.884171 1.56538
                  CHANNELS 3 Zrotation Xrotation Yrotation
                  End Site
                  {
                    OFFSET 1.62519 -0.234802 1.16502
                  }
                }
              }
              JOINT lMid1
              {
                OFFSET 8.24714 1.18213 3.41376
                CHANNELS 3 Zrotation Xrotation Yrotation
                JOINT lMid2
                {
                  OFFSET 3.10165 -0.590103 1.0647
                  CHANNELS 3 Zrotation Xrotation Yrotation
                  End Site
                  {
                    OFFSET 2.48547 -0.328903 0.83742
                  }
                }
              }
              JOINT lRing1
              {
                OFFSET 8.82822 0.546677 1.51678
                CHANNELS 3 Zrotation Xrotation Yrotation
                JOINT lRing2
                {
                  OFFSET 2.60934 -0.819778 -0.0198488
                  CHANNELS 3 Zrotation Xrotation Yrotation
                  End Site
                  {
                    OFFSET 2.33842 -0.294052 0.168128
                  }
                }
              }
              JOINT lPinky1
              {
                OFFSET 8.27202 -0.0477905 -0.4584
                CHANNELS 3 Zrotation Xrotation Yrotation
                JOINT lPinky2
                {
                  OFFSET 1.82734 -0.647385 -0.700984
                  CHANNELS 3 Zrotation Xrotation Yrotation
                  End Site
                  {
                    OFFSET 1.69225 -0.51767 -0.607171
                  }
                }
              }
            }
          }
        }
      }
    }
  }
  JOINT rButtock
  {
    OFFSET -8.77824 4.35084 1.2192
    CHANNELS 3 Zrotation Xrotation Yrotation
    JOINT rThigh
    {
      OFFSET 0 -1.70687 -2.19456
      CHANNELS 3 Zrotation Xrotation Yrotation
      JOINT rShin
      {
        OFFSET 0 -36.8199 0.73152
        CHANNELS 3 Zrotation Xrotation Yrotation
        JOINT rFoot
        {
          OFFSET 0.73152 -45.1104 -5.12064
          CHANNELS 3 Zrotation Xrotation Yrotation
          End Site
          {
            OFFSET -1.1221 -3.69964 12.103
          }
        }
      }
    }
  }
  JOINT lButtock
  {
    OFFSET 8.77824 4.35084 1.2192
    CHANNELS 3 Zrotation Xrotation Yrotation
    JOINT lThigh
    {
      OFFSET 0 -1.70687 -2.19456
      CHANNELS 3 Zrotation Xrotation Yrotation
      JOINT lShin
      {
        OFFSET 0 -36.8199 0.73152
        CHANNELS 3 Zrotation Xrotation Yrotation
        JOINT lFoot
        {
          OFFSET -0.73152 -45.1104 -5.12064
          CHANNELS 3 Zrotation Xrotation Yrotation
          End Site
          {
            OFFSET 1.1221 -3.69964 12.103
          }
        }
      }
    }
  }
}
MOTION
Frames:	5
Frame Time:	0.00833333
97.9614 85.1388 131.376 0.0 0.0 0.0 0.410589 -0.00336423 0.0117806 0.113459 -0.00539519 0.0196593 -2.30521e-15 7.95139e-16 1.49088e-16 -6.98852e-15 9.54166e-15 4.48819e-16 -0.0 0.0 0.0 -0.0 0.0 0.0 -1.09461e-15 1.2424e-17 1.98785e-16 -2.3497e-14 2.73329e-16 2.38542e-15 -4.25747e-13 1.33981e-13 2.54444e-14 -4.90273e-12 -9.18385e-14 3.11694e-13 -1.15646e-11 8.92871e-14 7.53791e-13 -1.99902e-11 1.59028e-13 1.30085e-12 -1.15625e-11 8.78628e-14 7.4425e-13 7.73091 5.47488 0.417314 -1.15668e-11 8.84592e-14 7.56972e-13 2.90554 0.965183 0.102902 -1.15603e-11 8.88567e-14 7.52201e-13 10.2786 0.731801 0.0259123 -1.15693e-11 9.50191e-14 7.53791e-13 2.22167 -0.733487 -0.20892 -1.29088e-15 1.16475e-17 -9.93923e-17 -2.58126e-14 4.78326e-16 7.95139e-16 -4.31114e-13 -1.1947e-13 5.725e-14 -4.90216e-12 1.69166e-13 2.92611e-13 -1.15656e-11 1.04239e-13 7.4743e-13 -1.99635e-11 1.74931e-13 1.29846e-12 -1.15677e-11 1.02175e-13 7.60153e-13 -7.73091 5.47488 -0.417314 -1.15652e-11 1.03666e-13 7.50611e-13 -2.90554 0.965183 -0.102902 -1.15682e-11 1.03964e-13 7.51406e-13 -10.2786 0.731801 -0.0259123 -1.15603e-11 1.06549e-13 7.4425e-13 -2.22167 -0.733487 0.20892 -2.03217e-16 0.0 -3.88251e-19 0.770613 -4.17183 -0.0656818 -0.00265493 2.00555 -0.0182708 -0.461838 2.16687 0.096102 2.03217e-16 0.0 3.88251e-19 -0.143227 -2.55995 0.0260683 0.00716315 -0.91409 0.0621713 0.453765 3.47457 -0.121224
97.0982 83.5262 125.775 172.743 -1.565 -153.174 -3.46786 -9.561 -1.07593 1.50137 4.31757 -0.345594 -0.0184972 2.70139 -0.767594 1.26066 -5.8813 -1.33932 -0.0 0.0 0.0 -0.0 0.0 0.0 2.21521e-14 2.96917e-14 7.91528e-15 22.9183 1.13926 -0.249653 -3.82569 -1.66667 6.0508 9.10691e-05 -0.211754 -0.0297594 -4.84963e-10 1.14053e-10 -1.80216e-10 -8.38208e-10 1.96352e-10 -3.10792e-10 -4.84961e-10 1.14053e-10 -1.80225e-10 7.73091 5.47488 0.417314 -4.84965e-10 1.14053e-10 -1.80213e-10 2.90554 0.965183 0.102902 -4.84957e-10 1.14053e-10 -1.80217e-10 10.2786 0.731801 0.0259123 -4.84968e-10 1.14058e-10 -1.80212e-10 2.22167 -0.733487 -0.20892 2.20378e-14 2.96882e-14 7.61361e-15 -21.367 4.79202 -1.11953 2.58053 -0.966426 -4.22639 -0.013759 2.60479 -0.364718 -5.07039e-10 -2.0684e-10 -1.90277e-10 -8.77765e-10 -3.58018e-10 -3.25439e-10 -5.07042e-10 -2.06841e-10 -1.90264e-10 -7.73091 5.47488 -0.417314 -5.07038e-10 -2.0684e-10 -1.90274e-10 -2.90554 0.965183 -0.102902 -5.07042e-10 -2.0684e-10 -1.90274e-10 -10.2786 0.731801 -0.0259123 -5.07034e-10 -2.06837e-10 -1.90281e-10 -2.22167 -0.733487 0.20892 -2.03217e-16 0.0 -3.88251e-19 -0.784625 -10.4741 1.13261 -0.00132997 3.60017 0.0225253 -0.460636 -2.57028 0.0760815 2.03217e-16 0.0 3.88251e-19 -2.29735 -9.38223 -2.71349 0.00530794 1.7052 0.018448 0.478901 1.46898 0.384017
97.1003 83.5269 125.755 172.758 -1.61 -153.265 -7.99045 -19.6549 -2.3323 3.03008 8.8875 -0.738735 0.0430266 5.55448 -1.58459 2.28615 -12.0881 -2.80312 -0.0 0.0 0.0 -0.0 0.0 0.0 4.85707e-14 6.3123e-14 1.5881e-14 47.1581 2.33838 -0.513049 -7.48864 -3.36601 12.4623 -5.17384e-05 -0.434969 -0.0611308 -1.01258e-09 2.38245e-10 -4.01294e-10 -1.75015e-09 4.10093e-10 -6.92154e-10 -1.01258e-09 2.38246e-10 -4.01303e-10 7.73091 5.47488 0.417314 -1.01259e-09 2.38245e-10 -4.01292e-10 2.90554 0.965183 0.102902 -1.01258e-09 2.38246e-10 -4.01294e-10 10.2786 0.731801 0.0259123 -1.01259e-09 2.38249e-10 -4.01285e-10 2.22167 -0.733487 -0.20892 4.85451e-14 6.31164e-14 1.55735e-14 -43.7483 9.84661 -2.33058 5.15337 -1.97023 -8.69719 0.00795278 5.37102 -0.754611 -1.05783e-09 -4.20044e-10 -3.87564e-10 -1.8312e-09 -7.2699e-10 -6.62626e-10 -1.05784e-09 -4.20045e-10 -3.87549e-10 -7.73091 5.47488 -0.417314 -1.05783e-09 -4.20045e-10 -3.87561e-10 -2.90554 0.965183 -0.102902 -1.05784e-09 -4.20044e-10 -3.87561e-10 -10.2786 0.731801 -0.0259123 -1.05783e-09 -4.20042e-10 -3.87568e-10 -2.22167 -0.733487 0.20892 -2.03217e-16 0.0 -3.88251e-19 -2.1343 -17.1254 2.47108 -0.00242845 5.28518 0.0658298 -0.463148 -7.57874 0.0531149 2.03217e-16 0.0 3.88251e-19 -5.31567 -16.5367 -5.77222 0.00774982 4.47471 -0.0278744 0.543639 -0.651843 0.913993
97.1149 83.5266 125.735 172.831 -1.6667 -153.357 -12.4413 -28.6322 -3.65382 4.44618 12.9614 -1.10122 0.16345 8.09832 -2.32341 2.9234 -17.6044 -4.19353 -0.0 0.0 0.0 -0.0 0.0 0.0 6.86455e-14 8.90503e-14 2.33483e-14 68.7847 3.41752 -0.750144 -10.4376 -4.77738 18.2102 -0.000386737 -0.635262 -0.0892831 -1.43176e-09 3.41981e-10 -5.42155e-10 -2.47464e-09 5.88738e-10 -9.34979e-10 -1.43176e-09 3.41983e-10 -5.42164e-10 7.73091 5.47488 0.417314 -1.43176e-09 3.41982e-10 -5.42154e-10 2.90554 0.965183 0.102902 -1.43175e-09 3.41982e-10 -5.42154e-10 10.2786 0.731801 0.0259123 -1.43177e-09 3.41984e-10 -5.42143e-10 2.22167 -0.733487 -0.20892 6.86952e-14 8.90412e-14 2.30396e-14 -63.5242 14.3537 -3.45483 7.31729 -2.83625 -12.6932 0.0589957 7.81311 -1.10327 -1.49799e-09 -6.20727e-10 -5.72327e-10 -2.59337e-09 -1.0744e-09 -9.78915e-10 -1.49799e-09 -6.20727e-10 -5.72311e-10 -7.73091 5.47488 -0.417314 -1.49798e-09 -6.20728e-10 -5.72323e-10 -2.90554 0.965183 -0.102902 -1.49799e-09 -6.20727e-10 -5.72324e-10 -10.2786 0.731801 -0.0259123 -1.49798e-09 -6.20725e-10 -5.72331e-10 -2.22167 -0.733487 0.20892 -2.03217e-16 0.0 -3.88251e-19 -3.04374 -23.0397 3.7736 -0.00553512 6.78941 0.104696 -0.468064 -12.0446 0.0367576 2.03217e-16 0.0 3.88251e-19 -8.70066 -22.8157 -8.77496 0.0136324 6.94378 -0.0695172 0.63527 -2.54137 1.39505
97.13 83.525 125.736 172.9 -1.6521 -153.352 -15.8123 -34.8597 -4.75918 5.46003 15.7973 -1.36304 0.276168 9.87464 -2.84721 3.20809 -21.4319 -5.23363 -0.0 0.0 0.0 -0.0 0.0 0.0 7.28608e-14 9.62172e-14 2.95692e-14 83.8579 4.19692 -0.920396 -12.3267 -5.68042 22.244 -0.000742891 -0.778251 -0.109383 -1.57983e-09 3.94578e-10 -4.82474e-10 -2.73051e-09 6.79643e-10 -8.31459e-10 -1.57982e-09 3.9458e-10 -4.82484e-10 7.73091 5.47488 0.417314 -1.57983e-09 3.94579e-10 -4.82474e-10 2.90554 0.965183 0.102902 -1.57981e-09 3.9458e-10 -4.82473e-10 10.2786 0.731801 0.0259123 -1.57983e-09 3.9458e-10 -4.82462e-10 2.22167 -0.733487 -0.20892 7.29526e-14 9.62073e-14 2.9271e-14 -77.1989 17.5135 -4.27085 8.75642 -3.4177 -15.4888 0.110703 9.4461 -1.33985 -1.66154e-09 -7.90104e-10 -7.2578e-10 -2.87739e-09 -1.36792e-09 -1.24296e-09 -1.66154e-09 -7.90103e-10 -7.25764e-10 -7.73091 5.47488 -0.417314 -1.66154e-09 -7.90104e-10 -7.25777e-10 -2.90554 0.965183 -0.102902 -1.66154e-09 -7.90104e-10 -7.25777e-10 -10.2786 0.731801 -0.0259123 -1.66154e-09 -7.90102e-10 -7.25783e-10 -2.22167 -0.733487 0.20892 -2.03217e-16 0.0 -3.88251e-19 -3.4742 -27.1472 4.7667 -0.00881619 7.8417 0.131964 -0.470285 -15.1539 0.0371673 2.03217e-16 0.0 3.88251e-19 -11.4796 -27.1018 -11.1052 0.0196011 8.66177 -0.0988239 0.720486 -3.85367 1.75162
